<svg width="22" height="23" viewBox="0 0 22 23" fill="none" xmlns="http://www.w3.org/2000/svg">
<path d="M18.2269 5.25353L18.2259 5.25327L12.3465 3.96148C11.906 3.86472 11.5223 4.18054 11.4894 4.66705C11.4565 5.15349 11.7869 5.6263 12.2274 5.7231L16.1748 6.59035L3.31345 17.1178C2.97803 17.3924 2.93914 17.9498 3.22656 18.3629C3.51398 18.7759 4.01886 18.8882 4.35427 18.6137L17.2156 8.08623L16.902 12.4413C16.867 12.9272 17.1956 13.4015 17.6359 13.5006C18.0763 13.5998 18.4616 13.286 18.4966 12.8002L18.9637 6.31351L18.9637 6.31235C18.9981 5.8253 18.6668 5.35083 18.2269 5.25353Z" fill="white"/>
</svg>
