<svg width="33" height="32" viewBox="0 0 33 32" fill="none" xmlns="http://www.w3.org/2000/svg">
<path d="M12.1187 6.84375L15.0875 9.8125C15.1875 9.9125 15.225 10.0687 15.175 10.2125C15.0063 10.65 15.0625 11.15 15.325 11.5312C15.4812 11.7625 15.7062 11.9438 15.9625 12.05C16.1125 12.1 16.2188 12.2375 16.2188 12.4062V20.925C16.2188 21.075 16.1312 21.2125 15.9812 21.275C15.025 21.65 14.7687 22.8812 15.4937 23.6125C16.3875 24.5062 17.925 23.8688 17.925 22.6063C17.925 22.3063 17.8312 22.0312 17.6812 21.8062C17.525 21.575 17.3 21.3938 17.0438 21.2875C16.8938 21.2375 16.7875 21.1 16.7875 20.9312V12.4062C16.7875 12.075 17.1937 11.9062 17.425 12.1375L20.3312 15.0437C20.4375 15.15 20.475 15.3125 20.4062 15.4563C20 16.3875 20.675 17.45 21.7125 17.45C22.975 17.45 23.6125 15.9125 22.7188 15.0188C22.3875 14.6875 21.8938 14.5313 21.4188 14.6313C21.3313 14.65 21.2438 14.675 21.1625 14.7125C21.0188 14.7875 20.8438 14.7625 20.725 14.6438L17.8563 11.775C17.75 11.6625 17.7125 11.4938 17.7875 11.3438C18.3063 10.275 17.3562 9.0625 16.1812 9.33125C16.0812 9.35625 15.9875 9.3875 15.9 9.43125C15.7562 9.5125 15.575 9.49375 15.45 9.36875L12.5188 6.4375L12.1187 6.84375ZM13.05 5.91875L15.8062 8.675C17.5062 8.1 19.1375 9.73125 18.5625 11.4312L21.0938 13.9563C22.4875 13.5375 23.8937 14.5813 23.8937 16.0375C23.8937 17.2375 22.9188 18.2125 21.7188 18.2125C20.2563 18.2125 19.2188 16.8063 19.6375 15.4125L17.5312 13.3125V20.6812C18.8062 21.3687 19.075 23.1 18.0375 24.1313C17.1875 24.9813 15.8125 24.9813 14.9625 24.1313C13.9312 23.1 14.1938 21.3687 15.4688 20.6812V12.6438C14.5875 12.1688 14.1437 11.1562 14.4 10.1812L11.5938 7.375L2.96875 16L16.5 29.5312L30.0312 16L16.5 2.46875L13.05 5.91875Z" fill="#2F3C59"/>
</svg>
