<svg width="33" height="32" viewBox="0 0 33 32" fill="none" xmlns="http://www.w3.org/2000/svg">
<path d="M32.5 30C32.5 31.1046 31.6046 32 30.5 32H2.5C1.39543 32 0.5 31.1046 0.5 30V2C0.5 0.895431 1.39543 0 2.5 0H30.5C31.6046 0 32.5 0.895431 32.5 2V30ZM24.8555 14.5215C22.1702 14.5215 20.4523 16.238 20.4521 18.4932C20.4521 20.9414 21.8935 22.1 24.0635 23.0244L24.8154 23.3467C26.1866 23.9464 27.0038 24.3119 27.0039 25.3428C27.0039 26.2032 26.2079 26.8262 24.9619 26.8262C24.0789 26.8261 23.4245 26.5518 22.9034 26.1077C22.295 25.5891 21.4441 25.3207 20.7529 25.7222V25.7222C20.0786 26.1139 19.8117 26.9827 20.3268 27.5681C21.3365 28.7157 22.8952 29.4951 25.0322 29.4951C27.888 29.495 30.0145 28.0116 30.0146 25.3047C30.0146 22.7935 28.5724 21.6757 26.0176 20.5801L25.2656 20.2588C23.9756 19.7001 23.4171 19.3346 23.417 18.4326C23.417 17.7028 23.9748 17.1436 24.8555 17.1436C25.2241 17.1436 25.5368 17.21 25.8143 17.3581C26.5181 17.7339 27.3585 18.0682 28.0298 17.637V17.637C28.6484 17.2398 28.8684 16.4053 28.3651 15.8696C27.4633 14.9096 26.316 14.5215 24.8555 14.5215ZM16.4233 14.6934C15.593 14.6934 14.9199 15.3665 14.9199 16.1968V24.918C14.9199 26.4208 14.2965 26.8076 13.3086 26.8076C12.8751 26.8076 12.5478 26.6828 12.279 26.4761C11.617 25.9669 10.7818 25.6186 10.0674 26.0511V26.0511C9.41878 26.4438 9.15141 27.2854 9.64097 27.8644C10.446 28.8165 11.6677 29.4892 13.4365 29.4893C16.1012 29.4893 17.9268 28.0716 17.9268 24.958V16.1968C17.9268 15.3665 17.2537 14.6934 16.4233 14.6934V14.6934Z" fill="#2F3C59"/>
</svg>
