<svg width="33" height="32" viewBox="0 0 33 32" fill="none" xmlns="http://www.w3.org/2000/svg">
<g clip-path="url(#clip0_273_839)">
<path d="M21.6974 15.0469C24.127 13.9456 24.4891 5.56284 23.0557 3.09379C21.1833 -0.129472 12.2827 0.517807 9.47223 2.82175C9.14953 3.96621 9.1833 6.04314 9.19831 7.69417H18.0201V8.46715H9.20019C9.20019 8.47841 5.27336 8.49154 5.27336 8.49154C-1.49775 8.49154 -1.35704 23.197 7.5773 23.197C7.5773 23.197 7.90563 19.9399 8.47973 18.3077C10.2527 13.2702 17.7011 16.8593 21.6974 15.0469ZM12.461 6.50092C11.9728 6.50092 11.5047 6.30701 11.1595 5.96184C10.8144 5.61668 10.6204 5.14853 10.6204 4.6604C10.6204 4.17226 10.8144 3.70411 11.1595 3.35895C11.5047 3.01378 11.9728 2.81987 12.461 2.81987C12.9491 2.81987 13.4173 3.01378 13.7624 3.35895C14.1076 3.70411 14.3015 4.17226 14.3015 4.6604C14.3015 5.14853 14.1076 5.61668 13.7624 5.96184C13.4173 6.30701 12.9491 6.50092 12.461 6.50092Z" fill="#2F3C59"/>
<path d="M25.1162 8.80115C25.1162 8.80115 24.8817 12.0601 24.3076 13.6905C22.5346 18.7261 15.0881 15.1389 11.09 16.9512C8.66221 18.0526 8.29636 26.4353 9.73163 28.9043C11.6022 32.1295 20.5027 31.4822 23.3151 29.1764C23.6378 28.0338 23.604 25.9569 23.589 24.3058H14.7654V23.5329H23.5853C23.5853 23.5216 27.9324 23.5085 27.9324 23.5085C34.1725 23.5085 34.7316 8.80115 25.1162 8.80115ZM20.0093 25.1783C20.4979 25.1783 20.9666 25.3724 21.3121 25.7179C21.6576 26.0634 21.8517 26.532 21.8517 27.0207C21.8517 27.5093 21.6576 27.9779 21.3121 28.3234C20.9666 28.669 20.4979 28.8631 20.0093 28.8631C19.5207 28.8631 19.052 28.669 18.7065 28.3234C18.361 27.9779 18.1669 27.5093 18.1669 27.0207C18.1669 26.532 18.361 26.0634 18.7065 25.7179C19.052 25.3724 19.5207 25.1783 20.0093 25.1783Z" fill="#2F3C59"/>
</g>
<defs>
<clipPath id="clip0_273_839">
<rect width="32" height="32" fill="white" transform="translate(0.5)"/>
</clipPath>
</defs>
</svg>
